HIERARCHY
ROOT Model_Hips
{
	OFFSET 0.000000 96.915077 0.000000
	CHANNELS 6 Xposition Yposition Zposition Xrotation Yrotation Zrotation
	JOINT Model_Spine
	{
		OFFSET 0.000000 11.137703 -1.289900
		CHANNELS 3 Xrotation Yrotation Zrotation
		JOINT Model_Spine1
		{
			OFFSET 0.000000 12.993942 -1.504922
			CHANNELS 3 Xrotation Yrotation Zrotation
			JOINT Model_Spine2
			{
				OFFSET 0.000000 14.850220 -1.719911
				CHANNELS 3 Xrotation Yrotation Zrotation
				JOINT Model_Neck
				{
					OFFSET 0.000000 16.706543 -1.934903
					CHANNELS 3 Xrotation Yrotation Zrotation
					JOINT Model_Head
					{
						OFFSET 0.000000 10.471298 2.002100
						CHANNELS 3 Xrotation Yrotation Zrotation
						JOINT Model_HeadTop_End
						{
							OFFSET 0.000000 20.842606 3.985100
							CHANNELS 3 Xrotation Yrotation Zrotation
							End Site
							{
								OFFSET 0.000000 21.220154 0.000000
							}
						}
					}
				}
				JOINT Model_LeftShoulder
				{
					OFFSET 7.008500 14.768600 -1.919946
					CHANNELS 3 Xrotation Yrotation Zrotation
					JOINT Model_LeftArm
					{
						OFFSET 14.126271 -3.718048 0.029937
						CHANNELS 3 Xrotation Yrotation Zrotation
						JOINT Model_LeftForeArm
						{
							OFFSET 28.282801 0.000000 0.000000
							CHANNELS 3 Xrotation Yrotation Zrotation
							JOINT Model_LeftHand
							{
								OFFSET 26.204689 0.000000 0.000000
								CHANNELS 3 Xrotation Yrotation Zrotation
								End Site
								{
									OFFSET 26.204704 0.000000 0.000000
								}
							}
						}
					}
				}
				JOINT Model_RightShoulder
				{
					OFFSET -7.008500 14.768555 -1.949840
					CHANNELS 3 Xrotation Yrotation Zrotation
					JOINT Model_RightArm
					{
						OFFSET -14.126281 -3.718018 -0.029932
						CHANNELS 3 Xrotation Yrotation Zrotation
						JOINT Model_RightForeArm
						{
							OFFSET -28.283798 0.000000 -0.000001
							CHANNELS 3 Xrotation Yrotation Zrotation
							JOINT Model_RightHand
							{
								OFFSET -26.204193 0.000000 -0.000001
								CHANNELS 3 Xrotation Yrotation Zrotation
								End Site
								{
									OFFSET -26.204208 0.000000 -0.000001
								}
							}
						}
					}
				}
			}
		}
	}
	JOINT Model_LeftUpLeg
	{
		OFFSET 8.327700 -6.193199 -0.402800
		CHANNELS 3 Xrotation Yrotation Zrotation
		JOINT Model_LeftLeg
		{
			OFFSET 0.735802 -42.108742 -0.610721
			CHANNELS 3 Xrotation Yrotation Zrotation
			JOINT Model_LeftFoot
			{
				OFFSET -0.735806 -36.833748 -0.172876
				CHANNELS 3 Xrotation Yrotation Zrotation
				JOINT Model_LeftToeBase
				{
					OFFSET -0.565857 -11.977769 16.297714
					CHANNELS 3 Xrotation Yrotation Zrotation
					JOINT Model_LeftToe_End
					{
						OFFSET -0.111712 -0.312793 7.857784
						CHANNELS 3 Xrotation Yrotation Zrotation
						End Site
						{
							OFFSET -0.111712 -0.312793 7.857784
						}
					}
				}
			}
		}
	}
	JOINT Model_RightUpLeg
	{
		OFFSET -8.327700 -6.193199 -0.516500
		CHANNELS 3 Xrotation Yrotation Zrotation
		JOINT Model_RightLeg
		{
			OFFSET -0.735785 -42.108738 -0.434061
			CHANNELS 3 Xrotation Yrotation Zrotation
			JOINT Model_RightFoot
			{
				OFFSET 0.735776 -36.833748 -0.021630
				CHANNELS 3 Xrotation Yrotation Zrotation
				JOINT Model_RightToeBase
				{
					OFFSET 0.565817 -11.977745 15.903093
					CHANNELS 3 Xrotation Yrotation Zrotation
					JOINT Model_RightToe_End
					{
						OFFSET 0.111702 -0.312791 7.811342
						CHANNELS 3 Xrotation Yrotation Zrotation
						End Site
						{
							OFFSET 0.111702 -0.312791 7.811342
						}
					}
				}
			}
		}
	}
}
MOTION
Frames: 13
Frame Time: 0.016667
0.339231 94.868095 0.320928 -2.440409 0.024288 -3.725035 1.720052 0.099437 0.606215 3.443624 0.243801 0.717516 3.443620 0.243801 0.717516 -0.281910 -0.511905 1.241985 -0.281918 -0.511905 1.241985 0.000000 0.000000 -0.000000 0.577974 -9.651120 -9.869727 -1.791111 -9.553070 -71.206047 32.363530 -4.837728 3.604598 0.000003 -0.000000 -0.000000 0.626926 3.035675 20.155747 -6.823682 19.799508 54.201181 23.947693 7.000467 -3.476591 -0.000001 -0.000000 0.000002 -22.848724 5.043140 3.320074 61.525736 11.290403 0.829047 -8.165322 -0.591330 5.841628 -15.477629 2.508557 -10.147382 0.000000 -0.000001 0.000000 -7.106445 -3.484303 7.293246 25.181589 -10.131192 -0.156415 -15.872697 -0.093599 -1.160918 -0.146938 -0.005753 0.000005 -0.000000 -0.000000 0.000000 
0.276729 94.953789 1.566944 -2.179157 0.017796 -3.123807 1.699898 0.247938 0.509757 3.403160 0.523752 0.594076 3.403162 0.523752 0.594076 -0.295362 -0.525900 1.101830 -0.295349 -0.525900 1.101830 0.000000 -0.000000 -0.000000 0.557225 -9.093704 -10.271174 -0.221178 -7.965310 -71.419675 31.565726 -5.023735 3.608058 0.000003 0.000000 0.000000 0.575234 3.572610 19.597199 -8.064958 20.798570 53.685553 22.872671 7.728203 -3.605233 0.000003 -0.000000 0.000001 -23.620208 5.038730 2.057553 57.533190 12.197902 0.874461 -8.473659 -0.531298 5.312573 -14.773494 2.187528 -8.865987 0.000000 0.000000 -0.000000 -6.298710 -3.649031 6.635960 24.834612 -9.790114 -0.139411 -16.589473 -0.069809 -1.082216 -0.142396 -0.004110 0.011137 0.000000 0.000001 0.000000 
0.209838 95.033417 2.796692 -1.917643 0.011221 -2.568195 1.684159 0.396106 0.426418 3.371537 0.807128 0.488146 3.371537 0.807128 0.488146 -0.314563 -0.543808 0.966426 -0.314568 -0.543808 0.966425 0.000000 -0.000000 -0.000000 0.542528 -8.579690 -10.646867 1.361783 -6.588656 -71.575950 30.654446 -5.386721 3.694028 -0.000000 -0.000000 0.000000 0.535640 4.052462 19.105009 -9.190282 21.819830 53.073462 21.752322 8.542174 -3.729918 0.000002 -0.000000 0.000001 -24.475626 4.919361 0.850641 53.503047 13.144623 0.839373 -8.713289 -0.502864 5.112761 -11.712437 1.557120 -7.748289 0.000001 0.000003 -0.000001 -5.448537 -3.750817 6.055182 24.337578 -9.537927 -0.127979 -17.208851 -0.046692 -1.004138 -0.053946 0.000147 -0.002442 0.000000 0.000000 0.000000 
0.140864 95.108299 4.019618 -1.651577 0.006942 -2.058941 1.669370 0.542107 0.352978 3.341801 1.090188 0.395899 3.341800 1.090187 0.395899 -0.335410 -0.565079 0.838032 -0.335382 -0.565079 0.838034 -0.000000 0.000000 -0.000000 0.532541 -8.102510 -10.995396 2.954801 -5.346427 -71.706372 29.712767 -5.848851 3.818297 0.000000 -0.000000 -0.000001 0.504501 4.487891 18.662741 -10.227985 22.844478 52.410138 20.625551 9.402893 -3.836823 0.000003 -0.000001 0.000002 -25.252685 4.732107 -0.295254 48.993401 13.898029 0.795956 -8.149664 -0.512082 5.318360 -8.228564 0.994781 -6.747729 0.000001 -0.000000 0.000000 -4.540047 -3.815832 5.543728 23.674877 -9.345434 -0.120405 -17.730674 -0.026195 -0.930889 -0.000100 0.005149 -0.000001 -0.000000 0.000001 0.000000 
0.074245 95.176994 5.241721 -1.376221 0.007988 -1.616333 1.652909 0.684263 0.291382 3.308669 1.369361 0.321017 3.308670 1.369362 0.321018 -0.354633 -0.590217 0.720697 -0.354628 -0.590217 0.720698 -0.000000 -0.000000 0.000000 0.527495 -7.675180 -11.301948 4.556848 -4.246082 -71.811871 28.781529 -6.399995 3.975151 -0.000000 -0.000000 0.000000 0.481370 4.866476 18.288484 -11.161168 23.844484 51.692115 19.516186 10.301050 -3.925057 0.000003 0.000001 -0.000001 -25.829001 4.460433 -1.336841 43.713153 14.317963 0.746480 -6.336704 -0.543935 5.936611 -6.074440 0.610584 -5.159119 -0.000000 -0.000001 0.000000 -3.558673 -3.844801 5.119694 22.821866 -9.211589 -0.118096 -18.146402 -0.011730 -0.859339 -0.003149 0.009633 -0.003360 -0.000000 -0.000000 0.000000 
0.013735 95.237968 6.472069 -1.088649 0.020331 -1.254575 1.631994 0.820055 0.242038 3.266541 1.639468 0.265632 3.266541 1.639469 0.265632 -0.369379 -0.620137 0.619362 -0.369374 -0.620138 0.619362 0.000001 0.000000 0.000000 0.525326 -7.308777 -11.552516 6.158764 -3.270914 -71.903109 27.912454 -7.005112 4.150255 -0.000000 -0.000000 -0.000000 0.463784 5.179397 17.990196 -11.984407 24.784236 50.933233 18.454534 11.217358 -3.994303 0.000003 -0.000001 0.000003 -26.049100 4.115511 -2.246008 37.468253 14.326371 0.727119 -3.210698 -0.542041 6.838645 -4.473796 0.375687 -3.796953 0.000000 -0.000002 -0.000000 -2.485445 -3.850610 4.792061 21.753650 -9.119954 -0.121468 -18.446282 -0.006220 -0.790084 -0.117097 0.012120 -0.033265 0.000000 0.000000 0.000001 
-0.037999 95.289284 7.721878 -0.789922 0.052025 -0.978035 1.603820 0.946201 0.203926 3.209717 1.893829 0.229661 3.209718 1.893829 0.229662 -0.376467 -0.654504 0.537365 -0.376454 -0.654503 0.537366 -0.000001 -0.000000 0.000000 0.525367 -7.009112 -11.735809 7.740028 -2.383192 -72.000111 27.152613 -7.609674 4.323952 -0.000003 0.000001 -0.000000 0.450572 5.424994 17.770728 -12.706293 25.625256 50.164656 17.469496 12.127586 -4.045835 -0.000000 -0.000002 0.000003 -26.013740 3.752089 -3.026445 30.955770 13.930216 0.762562 -0.303594 -0.500880 7.711927 -1.135091 0.094098 -0.870260 -0.000000 0.000001 0.000000 -1.645835 -3.882011 4.531527 21.127655 -9.054571 -0.120724 -18.692635 -0.017529 -0.691962 -0.516922 0.011483 0.010155 0.000000 -0.000001 0.000000 
-0.079392 95.328148 9.003274 -0.486057 0.110535 -0.780061 1.566786 1.059429 0.175081 3.134943 2.125764 0.210910 3.134943 2.125764 0.210911 -0.374794 -0.692888 0.476601 -0.374785 -0.692884 0.476601 0.000000 -0.000000 0.000000 0.526465 -6.776086 -11.846654 9.268535 -1.534058 -72.128451 26.529464 -8.150706 4.474760 -0.000003 -0.000000 -0.000000 0.440251 5.607789 17.623790 -13.347767 26.332650 49.430318 16.579891 13.009771 -4.082292 0.000000 0.000001 0.000001 -25.683948 3.421319 -3.668398 24.289708 13.041295 0.838834 2.226416 -0.411404 8.353500 -0.094154 0.053484 -0.001626 0.000001 0.000000 -0.000000 -0.955267 -3.958230 4.338336 20.825177 -8.985153 -0.118661 -18.927200 -0.038458 -0.610466 -1.232310 0.007204 0.094274 0.000000 -0.000000 0.000000 
-0.109559 95.350006 10.328573 -0.187275 0.198421 -0.646567 1.520766 1.157610 0.154889 3.042048 2.329896 0.205523 3.042047 2.329896 0.205523 -0.365184 -0.733778 0.436235 -0.365180 -0.733776 0.436236 0.000000 -0.000000 0.000000 0.528297 -6.602426 -11.888475 10.704773 -0.676555 -72.311821 26.043081 -8.570125 4.581660 0.000002 0.000000 -0.000001 0.432204 5.738168 17.536258 -13.935859 26.881403 48.778469 15.788225 13.851403 -4.106875 -0.000002 -0.000001 0.000001 -25.032778 3.172150 -4.175810 17.570863 11.675723 0.905988 4.417966 -0.286263 8.574486 -0.104847 0.013156 -0.076236 0.000000 -0.000001 -0.000000 -0.427370 -4.101862 4.186570 20.918347 -8.878905 -0.111838 -19.174040 -0.071459 -0.515555 -2.287297 -0.000830 0.198640 0.000000 0.000001 0.000000 
-0.127963 95.348038 11.709717 0.094138 0.308672 -0.560726 1.467257 1.241389 0.145265 2.934345 2.503817 0.208747 2.934346 2.503818 0.208747 -0.350686 -0.774730 0.412875 -0.350693 -0.774730 0.412874 0.000000 -0.000000 0.000000 0.530775 -6.474234 -11.873463 12.009131 0.222236 -72.564039 25.669058 -8.825441 4.626642 0.000001 -0.000000 0.000000 0.425976 5.829975 17.490762 -14.494826 27.260374 48.251257 15.079617 14.654296 -4.121817 0.000001 0.000000 0.000001 -24.241806 3.052292 -4.559179 11.376829 9.973322 0.884651 5.887713 -0.186756 8.241556 -0.125691 -0.034834 -0.126949 0.000000 0.000001 0.000000 -0.024640 -4.321709 4.051101 21.379728 -8.709850 -0.097234 -19.444191 -0.116385 -0.384057 -3.653889 -0.011788 0.277728 -0.000000 -0.000001 0.000000 
-0.134947 95.320976 13.154835 0.346348 0.426257 -0.495537 1.409299 1.310690 0.138943 2.817737 2.649134 0.215620 2.817737 2.649133 0.215620 -0.336500 -0.813913 0.401861 -0.336494 -0.813913 0.401862 -0.000000 -0.000000 0.000000 0.533677 -6.372664 -11.822208 13.149818 1.173022 -72.882606 25.371641 -8.895310 4.598049 -0.000001 -0.000000 0.000000 0.421075 5.897602 17.468625 -15.037090 27.473338 47.876412 14.425544 15.435456 -4.127760 0.000000 0.000000 0.000001 -23.561243 3.091405 -4.838515 6.369668 8.156439 0.742489 6.334562 -0.161674 7.365382 -0.180059 -0.077871 -0.133077 0.000001 -0.000001 -0.000000 0.327323 -4.607192 3.897322 22.090437 -8.464437 -0.073562 -19.708764 -0.175139 -0.181590 -5.258532 -0.022630 0.269821 0.000000 0.000001 0.000000 
-0.130969 95.266594 14.670245 0.560057 0.525304 -0.432307 1.350129 1.368746 0.134147 2.698810 2.771324 0.221262 2.698809 2.771323 0.221263 -0.327889 -0.849117 0.397569 -0.327887 -0.849115 0.397569 -0.000000 0.000000 0.000000 0.536964 -6.276185 -11.760473 14.108166 2.161674 -73.246792 25.121892 -8.779258 4.493315 0.000001 -0.000000 0.000000 0.417252 5.953661 17.454294 -15.557569 27.536369 47.663153 13.792414 16.223952 -4.124055 -0.000001 -0.000001 0.000002 -23.233397 3.289403 -5.024515 3.121194 6.486559 0.549002 5.629256 -0.207295 6.088852 -0.299581 -0.103298 -0.092842 0.000002 -0.000001 -0.000000 0.697650 -4.933064 3.697943 22.928035 -8.137527 -0.041304 -19.933082 -0.254327 0.136633 -6.999871 -0.027090 0.115665 0.000000 -0.000000 0.000000 
-0.115920 95.183418 16.258657 0.729340 0.575458 -0.357051 1.292465 1.419546 0.129198 2.583132 2.878709 0.220681 2.583134 2.878709 0.220681 -0.329153 -0.879165 0.395003 -0.329138 -0.879163 0.395004 0.000000 0.000000 0.000000 0.540288 -6.164298 -11.714750 14.879545 3.152283 -73.620615 24.914059 -8.493199 4.320862 0.000000 0.000002 0.000000 0.414203 6.006292 17.437381 -16.032397 27.473135 47.602768 13.151043 17.054479 -4.109604 0.000000 0.000001 -0.000002 -23.376910 3.610080 -5.126060 1.867216 5.220175 0.428728 3.911365 -0.271011 4.648076 -0.511994 -0.104246 -0.022669 0.000001 0.000000 -0.000000 1.167500 -5.265249 3.453908 23.745614 -7.758245 -0.002596 -20.148802 -0.341321 0.474661 -8.770331 -0.016829 -0.218124 -0.000000 0.000000 0.000000 
